<svg width="570" height="385" viewBox="0 0 570 385" fill="none" xmlns="http://www.w3.org/2000/svg">
<g clip-path="url(#clip0_5436_16253)">
<path d="M19.1742 146.604C20.6048 145.678 22.1258 144.973 23.6961 144.496L24.6252 139.69L32.1891 139.549L33.2744 144.311C34.8612 144.735 36.4068 145.378 37.8621 146.252L41.6851 143.562L47.1279 149.197L44.76 153.386C45.6233 154.921 46.281 156.553 46.725 158.237L51.2058 159.234L51.3374 167.347L46.8977 168.512C46.503 170.214 45.9029 171.872 45.0889 173.433L47.5965 177.534L42.3429 183.372L38.4376 180.832C37.007 181.758 35.486 182.464 33.9157 182.94L32.9866 187.747L25.4227 187.888L24.3374 183.125C22.7506 182.702 21.205 182.058 19.7497 181.185L15.9267 183.875L10.4839 178.239L12.8517 174.05C11.9885 172.516 11.3307 170.884 10.8868 169.199L6.40596 168.203L6.27441 160.089L10.7141 158.925C11.1088 157.223 11.7089 155.565 12.5229 154.004L10.0153 149.903L15.2689 144.064L19.1824 146.604H19.1742ZM23.211 157.417C20.095 160.874 20.1855 166.386 23.4166 169.729C26.6395 173.071 31.778 172.974 34.894 169.508C38.01 166.051 37.9196 160.539 34.6885 157.196C31.4656 153.854 26.3271 153.951 23.211 157.417Z" fill="#EBEBEB"/>
<path d="M30.3226 29.1483C31.7532 28.2222 33.2742 27.5167 34.8446 27.0404L35.7736 22.2339L43.3375 22.0928L44.4228 26.8552C46.0096 27.2786 47.5553 27.9224 49.0105 28.7955L52.8336 26.1056L58.2763 31.7411L55.9085 35.9303C56.7718 37.4649 57.4295 39.0965 57.8735 40.781L62.3543 41.7776L62.4858 49.8914L58.0461 51.0555C57.6515 52.7577 57.0513 54.4157 56.2373 55.9767L58.7449 60.0777L53.4913 65.9161L49.586 63.3762C48.1554 64.3022 46.6344 65.0077 45.0641 65.484L44.135 70.2905L36.5711 70.4316L35.4859 65.6692C33.8991 65.2459 32.3534 64.6021 30.8982 63.7289L27.0751 66.4188L21.6323 60.7833L24.0002 56.5941C23.1369 55.0595 22.4792 53.4279 22.0352 51.7434L17.5544 50.7469L17.4229 42.633L21.8626 41.4689C22.2572 39.7668 22.8574 38.1087 23.6713 36.5477L21.1637 32.4467L26.4174 26.6083L30.3309 29.1483H30.3226ZM34.3595 39.9608C31.2435 43.418 31.3339 48.9301 34.565 52.2726C37.7879 55.6151 42.9265 55.5181 46.0425 52.0521C49.1585 48.5949 49.068 43.0828 45.8369 39.7403C42.614 36.3978 37.4755 36.4948 34.3595 39.9608Z" fill="#EBEBEB"/>
<path d="M195.396 74.7002C197.123 73.5801 198.965 72.7334 200.856 72.1514L201.982 66.3482L211.116 66.1807L212.432 71.9309C214.347 72.4336 216.214 73.2185 217.973 74.268L222.586 71.0225L229.155 77.831L226.293 82.8933C227.338 84.7454 228.127 86.7209 228.67 88.7494L234.071 89.9576L234.236 99.7559L228.875 101.167C228.406 103.222 227.675 105.224 226.696 107.111L229.722 112.068L223.375 119.114L218.656 116.045C216.929 117.165 215.087 118.012 213.196 118.594L212.07 124.397L202.936 124.565L201.62 118.815C199.705 118.312 197.838 117.527 196.079 116.477L191.467 119.723L184.897 112.914L187.759 107.852C186.714 106 185.925 104.025 185.382 101.996L179.973 100.788L179.816 90.9895L185.177 89.5784C185.646 87.5235 186.377 85.5215 187.356 83.6342L184.33 78.6865L190.677 71.6398L195.396 74.709V74.7002ZM200.264 87.7528C196.506 91.9332 196.613 98.583 200.51 102.613C204.407 106.644 210.607 106.529 214.364 102.349C218.121 98.1685 218.014 91.5187 214.117 87.4882C210.22 83.4578 204.021 83.5724 200.264 87.7528Z" fill="#EBEBEB"/>
<path d="M71.0042 10.9976C71.7277 10.5302 72.5005 10.1774 73.2898 9.93045L73.7584 7.50513L77.5815 7.43457L78.1323 9.84225C78.9298 10.0539 79.7109 10.3802 80.4509 10.8212L82.3829 9.46302L85.1372 12.3117L83.9368 14.4283C84.3726 15.2044 84.7015 16.0334 84.9317 16.8801L87.1926 17.3828L87.2584 21.4838L85.0139 22.0747C84.8166 22.9302 84.5124 23.768 84.1013 24.5618L85.3674 26.6343L82.7118 29.5888L80.7386 28.3012C80.0151 28.7686 79.2423 29.1214 78.453 29.3683L77.9844 31.7936L74.1613 31.8642L73.6104 29.4565C72.8129 29.2448 72.0319 28.9185 71.2919 28.4775L69.3598 29.8357L66.6056 26.9871L67.8059 24.8704C67.3702 24.0943 67.0413 23.2653 66.8111 22.4186L64.5501 21.9159L64.4844 17.8149L66.7289 17.2241C66.9262 16.3686 67.2304 15.5307 67.6415 14.737L66.3754 12.6644L69.031 9.70996L71.0042 10.9976ZM73.0431 16.4656C71.4728 18.2118 71.5139 20.9987 73.1418 22.692C74.7697 24.3765 77.3677 24.3324 78.9463 22.5862C80.5166 20.84 80.4755 18.0531 78.8476 16.3598C77.2197 14.6664 74.6217 14.7194 73.0431 16.4656Z" fill="#EBEBEB"/>
<path fill-rule="evenodd" clip-rule="evenodd" d="M475.412 40.2787C475.412 41.1254 474.771 41.8133 473.981 41.8133C473.192 41.8133 472.551 41.1254 472.551 40.2787C472.551 39.432 473.192 38.7441 473.981 38.7441C474.771 38.7441 475.412 39.432 475.412 40.2787Z" fill="#E0E0E0"/>
<path fill-rule="evenodd" clip-rule="evenodd" d="M512.416 14.8793C512.416 15.726 511.775 16.4139 510.985 16.4139C510.196 16.4139 509.555 15.726 509.555 14.8793C509.555 14.0326 510.196 13.3447 510.985 13.3447C511.775 13.3447 512.416 14.0326 512.416 14.8793Z" fill="#E0E0E0"/>
<path d="M468.301 324.932C468.301 324.932 468.285 324.508 468.276 323.688C468.276 322.859 468.268 321.642 468.26 320.046C468.252 316.835 468.235 312.108 468.219 306.014C468.202 293.808 468.178 276.143 468.153 254.227C468.137 210.386 468.112 149.585 468.087 81.7027V81.6498L468.112 81.5969C469.962 77.6458 471.96 73.4125 473.958 69.1439L473.933 69.2498V68.3855C473.933 58.8341 473.933 49.4062 473.933 40.2606L474.147 40.4899C391.494 40.4369 321.585 40.3928 286.471 40.3664L286.569 40.2606C286.553 49.5738 286.536 56.7263 286.52 61.5593C286.512 63.967 286.504 65.7926 286.495 67.0273C286.487 68.2532 286.471 68.8793 286.471 68.8793C286.471 68.8793 286.454 68.2532 286.446 67.0273C286.446 65.7926 286.43 63.967 286.421 61.5593C286.413 56.7263 286.397 49.5826 286.372 40.2606V40.1547H286.471C321.585 40.1283 391.494 40.0842 474.147 40.0312H474.361V40.2606C474.361 49.4062 474.361 58.8341 474.361 68.3855V69.3027L474.336 69.3556C472.33 73.6242 470.34 77.8575 468.49 81.8085L468.515 81.7027C468.49 149.585 468.466 210.386 468.449 254.227C468.424 276.143 468.4 293.808 468.383 306.014C468.367 312.108 468.35 316.835 468.342 320.046C468.334 321.642 468.326 322.859 468.326 323.688C468.326 324.508 468.301 324.932 468.301 324.932Z" fill="#E0E0E0"/>
<path d="M505.157 150.573C507.557 190.904 505.132 150.123 505.116 149.25C505.099 148.368 505.074 147.081 505.042 145.387C504.984 141.992 504.902 137 504.795 130.615C504.606 117.818 504.334 99.4032 503.997 76.8962V76.8257C506.094 70.8638 508.297 64.5756 510.591 58.0228V58.0934C510.575 44.9349 510.566 30.3477 510.558 14.9491L510.764 15.1696C494.362 15.1696 476.57 15.1696 458.129 15.1784C426.5 15.1696 396.779 15.1608 371.012 15.152H370.897L370.847 15.0373C369.072 11.0069 367.345 7.0999 365.676 3.29876L365.84 3.40459C341.406 3.36931 321.139 3.34286 306.973 3.32522C299.903 3.29876 294.353 3.28112 290.563 3.2723C288.68 3.26348 287.233 3.25466 286.247 3.24584C285.268 3.23702 284.767 3.21939 284.767 3.21939C284.767 3.21939 285.268 3.20175 286.247 3.19293C287.233 3.19293 288.68 3.17529 290.563 3.16647C294.353 3.15765 299.903 3.14001 306.973 3.11355C321.139 3.09592 341.406 3.06946 365.84 3.03418H365.956L366.005 3.14001C367.682 6.94115 369.417 10.8481 371.193 14.8697L371.02 14.7551C396.779 14.7551 426.508 14.7375 458.137 14.7286C476.578 14.7286 494.37 14.7286 510.772 14.7375H510.978V14.9579C510.978 30.3653 510.961 44.9437 510.953 58.1022V58.1728C508.634 64.7255 506.423 70.9961 504.326 76.958V76.8962C504.606 99.4032 504.828 117.818 504.984 130.624C505.05 137.009 505.099 142.001 505.14 145.396C505.148 147.081 505.165 148.377 505.165 149.259C505.165 150.132 505.165 150.582 505.165 150.582C505.165 150.582 502.756 110.242 505.157 150.573Z" fill="#E0E0E0"/>
<path d="M494.905 160.433C494.905 160.433 494.88 159.939 494.856 158.969C494.831 157.999 494.798 156.561 494.749 154.682C494.667 150.917 494.535 145.378 494.379 138.261C494.075 124.018 493.639 103.486 493.104 78.2804V78.2452L493.121 78.2099C495.563 72.0716 498.152 65.5629 500.849 58.7809L500.833 58.8514C501.071 48.2329 501.334 36.7589 501.606 24.7293L501.803 24.941C474.277 24.941 443.347 24.9586 410.756 24.9586C353.533 24.9322 301.441 24.9145 262.922 24.8969L263.037 24.844C258.77 29.4124 254.766 33.6986 251.017 37.7114L250.976 37.7555H250.919C233.859 37.5968 220.268 37.4733 210.937 37.3851C206.283 37.3322 202.69 37.2881 200.249 37.2616C199.04 37.244 198.119 37.2264 197.486 37.2175C196.869 37.2087 196.549 37.1911 196.549 37.1911C196.549 37.1911 196.861 37.1823 197.486 37.1734C198.111 37.1734 199.032 37.1734 200.249 37.1734C202.682 37.1823 206.283 37.1999 210.937 37.2175C220.268 37.2705 233.859 37.3498 250.919 37.4557L250.82 37.4998C254.561 33.4781 258.557 29.1831 262.815 24.6059L262.865 24.5529H262.931C301.449 24.5353 353.542 24.5177 410.764 24.4912C443.355 24.4912 474.285 24.5089 501.811 24.5089H502.008V24.7205C501.721 36.7501 501.441 48.2329 501.194 58.8426V58.8779L501.178 58.9131C498.473 65.6864 495.875 72.1863 493.417 78.3245L493.433 78.254C493.91 103.46 494.297 124 494.56 138.243C494.683 145.352 494.782 150.89 494.847 154.665C494.872 156.543 494.897 157.972 494.913 158.951C494.921 159.921 502.346 194.908 502.346 194.908L494.905 160.433Z" fill="#E0E0E0"/>
<path fill-rule="evenodd" clip-rule="evenodd" d="M198.99 37.059C198.99 37.9056 198.349 38.5935 197.559 38.5935C196.77 38.5935 196.129 37.9056 196.129 37.059C196.129 36.2123 196.77 35.5244 197.559 35.5244C198.349 35.5244 198.99 36.2123 198.99 37.059Z" fill="#E0E0E0"/>
<path fill-rule="evenodd" clip-rule="evenodd" d="M284.767 3.21914C284.767 4.0658 284.126 4.7537 283.337 4.7537C282.548 4.7537 281.906 4.0658 281.906 3.21914C281.906 2.37248 282.548 1.68457 283.337 1.68457C284.126 1.68457 284.767 2.37248 284.767 3.21914Z" fill="#E0E0E0"/>
<path d="M522.211 322.057H492.325C501.073 290.148 503.071 230.291 501.599 190.71H512.592C512.016 230.194 514.672 289.707 522.211 322.057Z" fill="#EBEBEB"/>
<path d="M563.294 360.862C558.073 354.68 550.27 351.522 542.83 352.572C543.545 345.499 544.203 338.011 541.605 331.546C539.015 325.082 531.879 320.469 526.444 323.891C528.45 314.11 524.931 303.13 517.885 297.186C510.831 291.242 500.661 290.677 493.146 295.81C485.632 300.943 481.208 311.482 482.384 321.448C474.861 320.76 467.133 324.87 462.726 331.908C458.311 338.946 457.374 348.665 460.325 356.646C449.136 356.002 438.464 371.71 438.686 384.577L569.715 384.401C570.849 375.89 568.506 367.035 563.285 360.853L563.294 360.862Z" fill="#EBEBEB"/>
<path d="M559.928 384.77C559.928 384.894 434.573 385 279.981 385C125.389 385 0 384.894 0 384.77C0 384.647 125.331 384.541 279.981 384.541C434.63 384.541 559.928 384.647 559.928 384.77Z" fill="#263238"/>
<path d="M506.519 330.964C508.796 332.022 510.465 334.28 511.312 336.785C512.159 339.29 512.225 342.024 511.945 344.669C511.403 349.785 508.698 354.953 505.779 359.036C501.767 355.279 500.838 348.717 500.567 345.357C500.131 340.048 502.359 330.17 506.527 330.964" fill="#00C26B"/>
<path d="M510.449 367.477C509.808 364.584 510.926 361.409 512.998 359.433C515.07 357.458 517.955 356.62 520.718 356.849C521.992 356.955 523.374 357.352 524.105 358.481C524.788 359.539 524.714 361.012 524.155 362.15C523.596 363.288 522.642 364.143 521.622 364.822C518.145 367.168 514.371 368.747 510.441 367.477" fill="#00C26B"/>
<path d="M505.296 383.166C505.296 383.166 505.329 382.787 505.436 382.116C505.559 381.376 505.723 380.423 505.921 379.277C506.365 376.904 506.932 373.5 508.65 370.202C510.344 366.912 512.72 364.487 514.726 363.278C515.721 362.661 516.584 362.291 517.201 362.105C517.505 362 517.752 361.955 517.916 361.911C518.081 361.876 518.171 361.858 518.171 361.876C518.196 361.955 516.782 362.238 514.858 363.508C512.926 364.751 510.632 367.15 508.963 370.387C507.277 373.623 506.669 376.975 506.167 379.338C505.921 380.529 505.723 381.49 505.575 382.161C505.419 382.822 505.321 383.184 505.296 383.184V383.166Z" fill="#263238"/>
<path d="M505.443 338.646C505.443 338.646 505.468 338.804 505.493 339.104C505.509 339.448 505.534 339.88 505.567 340.427C505.624 341.574 505.69 343.232 505.748 345.278C505.871 349.379 505.97 355.041 505.945 361.302C505.92 367.564 505.772 373.226 505.616 377.327C505.542 379.373 505.46 381.031 505.394 382.178C505.361 382.716 505.328 383.157 505.312 383.492C505.287 383.792 505.271 383.951 505.263 383.951C505.254 383.951 505.246 383.792 505.246 383.492C505.246 383.148 505.254 382.716 505.263 382.169C505.287 380.978 505.328 379.329 505.369 377.318C505.46 373.217 505.567 367.555 505.591 361.302C505.616 355.05 505.559 349.387 505.501 345.286C505.468 343.276 505.443 341.626 505.427 340.427C505.427 339.889 505.427 339.448 505.427 339.104C505.427 338.804 505.435 338.646 505.452 338.646H505.443Z" fill="#263238"/>
<path d="M503.494 370.598C502.582 364.407 498.693 358.815 493.423 356.108C492.083 355.42 490.331 354.97 489.221 356.037C488.12 357.113 488.366 359.036 488.901 360.526C491.154 366.726 497.188 371.101 503.396 371.021" fill="#00C26B"/>
<path d="M494.072 360.949C494.072 360.949 494.384 361.073 494.927 361.346C495.198 361.487 495.527 361.655 495.889 361.893C496.251 362.131 496.686 362.369 497.114 362.722C497.55 363.057 498.043 363.41 498.52 363.851C499.021 364.265 499.506 364.768 500.016 365.306C501.003 366.4 502.006 367.705 502.853 369.213C503.691 370.73 504.3 372.291 504.719 373.746C504.908 374.478 505.097 375.184 505.188 375.854C505.327 376.515 505.377 377.15 505.426 377.724C505.5 378.297 505.475 378.817 505.492 379.276C505.508 379.734 505.492 380.123 505.459 380.449C505.418 381.093 505.377 381.445 505.352 381.437C505.27 381.437 505.41 380.017 505.179 377.75C505.114 377.186 505.048 376.568 504.9 375.916C504.793 375.254 504.604 374.575 504.407 373.852C503.971 372.423 503.371 370.897 502.548 369.407C501.71 367.925 500.74 366.638 499.778 365.544C499.284 365.015 498.816 364.503 498.331 364.089C497.87 363.639 497.393 363.278 496.974 362.934C495.248 361.611 494.039 361.02 494.072 360.94V360.949Z" fill="#263238"/>
<path d="M139.949 163.723H54V384.824H139.949V163.723Z" fill="#E0E0E0"/>
<path d="M96.9745 163.723H29.0225V384.824H96.9745V163.723Z" fill="#F5F5F5"/>
<path d="M97.0735 384.665C96.9582 384.665 96.8594 335.144 96.8594 274.079C96.8594 213.014 96.9582 163.484 97.0735 163.484C97.1888 163.484 97.2877 212.987 97.2877 274.079C97.2877 335.171 97.1888 384.665 97.0735 384.665Z" fill="#263238"/>
<path d="M129.959 189.122H109.372V191.397H129.959V189.122Z" fill="#263238"/>
<path d="M129.959 195.64H109.372V197.915H129.959V195.64Z" fill="#263238"/>
<path d="M129.959 202.148H109.372V204.424H129.959V202.148Z" fill="#263238"/>
<path d="M90.4046 173.133H36.043V377.812H90.4046V173.133Z" fill="#E0E0E0"/>
<path d="M84.9865 180.664H39.9482V187.984H84.9865V180.664Z" fill="#EBEBEB"/>
<path d="M46.7722 180.664H39.9482V187.984H46.7722V180.664Z" fill="#00C26B"/>
<path d="M86.3836 180.664H71.5518V187.984H86.3836V180.664Z" fill="#F5F5F5"/>
<path d="M84.9865 193.699H39.9482V201.019H84.9865V193.699Z" fill="#EBEBEB"/>
<path d="M46.7722 193.699H39.9482V201.019H46.7722V193.699Z" fill="white"/>
<path d="M86.3836 193.699H71.5518V201.019H86.3836V193.699Z" fill="#F5F5F5"/>
<path d="M84.9865 206.726H39.9482V214.046H84.9865V206.726Z" fill="#EBEBEB"/>
<path d="M46.7722 206.726H39.9482V214.046H46.7722V206.726Z" fill="#00C26B"/>
<path d="M86.3836 206.726H71.5518V214.046H86.3836V206.726Z" fill="#F5F5F5"/>
<path d="M84.9865 219.761H39.9482V227.081H84.9865V219.761Z" fill="#EBEBEB"/>
<path d="M46.7722 219.761H39.9482V227.081H46.7722V219.761Z" fill="white"/>
<path d="M86.3836 219.761H71.5518V227.081H86.3836V219.761Z" fill="#F5F5F5"/>
<path d="M84.9865 232.796H39.9482V240.116H84.9865V232.796Z" fill="#EBEBEB"/>
<path d="M46.7722 232.796H39.9482V240.116H46.7722V232.796Z" fill="#00C26B"/>
<path d="M86.3836 232.796H71.5518V240.116H86.3836V232.796Z" fill="#F5F5F5"/>
<path d="M84.9865 245.822H39.9482V253.142H84.9865V245.822Z" fill="#EBEBEB"/>
<path d="M46.7722 245.822H39.9482V253.142H46.7722V245.822Z" fill="#00C26B"/>
<path d="M86.3836 245.822H71.5518V253.142H86.3836V245.822Z" fill="#F5F5F5"/>
<path d="M84.9865 258.856H39.9482V266.176H84.9865V258.856Z" fill="#EBEBEB"/>
<path d="M46.7722 258.856H39.9482V266.176H46.7722V258.856Z" fill="white"/>
<path d="M86.3836 258.856H71.5518V266.176H86.3836V258.856Z" fill="#F5F5F5"/>
<path d="M84.9865 271.892H39.9482V279.212H84.9865V271.892Z" fill="#EBEBEB"/>
<path d="M46.7722 271.892H39.9482V279.212H46.7722V271.892Z" fill="white"/>
<path d="M86.3836 271.892H71.5518V279.212H86.3836V271.892Z" fill="#F5F5F5"/>
<path d="M84.9865 284.918H39.9482V292.238H84.9865V284.918Z" fill="#EBEBEB"/>
<path d="M46.7722 284.918H39.9482V292.238H46.7722V284.918Z" fill="white"/>
<path d="M86.3836 284.918H71.5518V292.238H86.3836V284.918Z" fill="#F5F5F5"/>
<path d="M84.9865 297.953H39.9482V305.273H84.9865V297.953Z" fill="#EBEBEB"/>
<path d="M46.7722 297.953H39.9482V305.273H46.7722V297.953Z" fill="#00C26B"/>
<path d="M86.3836 297.953H71.5518V305.273H86.3836V297.953Z" fill="#F5F5F5"/>
<path d="M84.9865 310.988H39.9482V318.308H84.9865V310.988Z" fill="#EBEBEB"/>
<path d="M46.7722 310.988H39.9482V318.308H46.7722V310.988Z" fill="white"/>
<path d="M86.3836 310.988H71.5518V318.308H86.3836V310.988Z" fill="#F5F5F5"/>
<path d="M84.9865 324.023H39.9482V331.344H84.9865V324.023Z" fill="#EBEBEB"/>
<path d="M46.7722 324.023H39.9482V331.344H46.7722V324.023Z" fill="#00C26B"/>
<path d="M86.3836 324.023H71.5518V331.344H86.3836V324.023Z" fill="#F5F5F5"/>
<path d="M84.9865 337.049H39.9482V344.369H84.9865V337.049Z" fill="#EBEBEB"/>
<path d="M46.7722 337.049H39.9482V344.369H46.7722V337.049Z" fill="white"/>
<path d="M86.3836 337.049H71.5518V344.369H86.3836V337.049Z" fill="#F5F5F5"/>
<path d="M84.9865 350.084H39.9482V357.404H84.9865V350.084Z" fill="#EBEBEB"/>
<path d="M46.7722 350.084H39.9482V357.404H46.7722V350.084Z" fill="#00C26B"/>
<path d="M86.3836 350.084H71.5518V357.404H86.3836V350.084Z" fill="#F5F5F5"/>
<path d="M84.9865 363.119H39.9482V370.439H84.9865V363.119Z" fill="#EBEBEB"/>
<path d="M46.7722 363.119H39.9482V370.439H46.7722V363.119Z" fill="white"/>
<path d="M86.3836 363.119H71.5518V370.439H86.3836V363.119Z" fill="#F5F5F5"/>
<path d="M139.949 384.824C139.949 382.857 139.867 293.014 139.752 163.722L139.949 163.934C105.731 163.934 68.215 163.943 29.0388 163.952H29.0224L29.2361 163.722C29.2197 248.6 29.195 326.21 29.1868 384.824L29.0224 384.647C97.2458 384.753 138.65 384.815 139.949 384.824C138.658 384.824 97.2458 384.894 29.0224 385H28.8579V384.824C28.8415 326.21 28.825 248.6 28.8086 163.722V163.493H29.0388C68.215 163.493 105.731 163.502 139.949 163.511H140.146V163.722C140.105 228.421 140.072 283.719 140.048 322.85C139.982 361.84 139.949 383.845 139.941 384.824H139.949Z" fill="#263238"/>
<path d="M431.177 101.404H135.329C130.231 101.404 126.096 105.84 126.096 111.308V335.47C126.096 340.938 130.231 345.374 135.329 345.374H248.878L243.37 384.532H325.693L321.097 345.374H431.177C436.275 345.374 440.41 340.938 440.41 335.47V111.317C440.41 105.849 436.275 101.413 431.177 101.413V101.404Z" fill="#EAF3FE"/>
<path d="M287.197 321.8C291.218 327.973 284.92 334.729 279.173 330.407C278.984 330.266 278.811 330.081 278.68 329.878C274.668 323.714 280.957 316.958 286.704 321.271C286.893 321.412 287.066 321.597 287.197 321.8Z" fill="#263238"/>
<path d="M142.341 109.968H424.205C428.603 109.968 432.18 113.804 432.18 118.523V304.373H134.366V118.514C134.366 113.795 137.943 109.959 142.341 109.959V109.968Z" fill="#263238"/>
<path d="M351.623 345.383C351.623 345.488 326.819 345.577 296.234 345.577C265.649 345.577 240.845 345.488 240.845 345.383C240.845 345.277 265.641 345.188 296.234 345.188C326.827 345.188 351.623 345.277 351.623 345.383Z" fill="#263238"/>
<path d="M185.983 125.322H164.277V130.235H185.983V125.322Z" fill="#EAF3FE"/>
<path d="M175.13 147.326H164.277V152.239H175.13V147.326Z" fill="#375DE7"/>
<path d="M187.734 158.395H172.45V163.307H187.734V158.395Z" fill="#EAF3FE"/>
<path d="M199.063 158.395H190.159V163.307H199.063V158.395Z" fill="#EAF3FE"/>
<path d="M278.912 158.395H260.594V163.307H278.912V158.395Z" fill="#EAF3FE"/>
<path d="M332.434 169.189H301.496V174.102H332.434V169.189Z" fill="#EAF3FE"/>
<path d="M380.162 158.395H365.306V163.307H380.162V158.395Z" fill="#EAF3FE"/>
<path d="M414.595 158.395H384.718V163.307H414.595V158.395Z" fill="#EAF3FE"/>
<path d="M187.734 169.189H172.45V174.102H187.734V169.189Z" fill="#EAF3FE"/>
<path d="M178.345 179.949H163.061V184.862H178.345V179.949Z" fill="#375DE7"/>
<path d="M178.344 190.709H171.199V195.621H178.344V190.709Z" fill="#EAF3FE"/>
<path d="M204.548 213.375H197.411V218.287H204.548V213.375Z" fill="#EAF3FE"/>
<path d="M309.586 254.341H295.634V259.253H309.586V254.341Z" fill="#EAF3FE"/>
<path d="M387.529 254.341H353.352V259.253H387.529V254.341Z" fill="#EAF3FE"/>
<path d="M257.059 243.59H243.106V248.502H257.059V243.59Z" fill="#E0E0E0"/>
<path d="M206.513 234.355H192.561V239.268H206.513V234.355Z" fill="#EAF3FE"/>
<path d="M292.741 254.341H270.74V259.253H292.741V254.341Z" fill="#EAF3FE"/>
<path d="M182.784 201.672H171.199V206.584H182.784V201.672Z" fill="#EAF3FE"/>
<path d="M192.691 213.56H171.199V218.472H192.691V213.56Z" fill="#EAF3FE"/>
<path d="M202.647 222.671H171.199V227.583H202.647V222.671Z" fill="#EAF3FE"/>
<path d="M259.625 222.671H228.177V227.583H259.625V222.671Z" fill="#EAF3FE"/>
<path d="M236.439 243.59H192.28V248.502H236.439V243.59Z" fill="#EAF3FE"/>
<path d="M266.966 254.341H192.28V259.253H266.966V254.341Z" fill="#EAF3FE"/>
<path d="M244.373 265.091H169.688V270.003H244.373V265.091Z" fill="#EAF3FE"/>
<path d="M224.838 222.67H205.97V227.582H224.838V222.67Z" fill="#EAF3FE"/>
<path d="M200.625 190.709H181.156V195.621H200.625V190.709Z" fill="#EAF3FE"/>
<path d="M204.918 201.672H185.449V206.584H204.918V201.672Z" fill="#EAF3FE"/>
<path d="M280.344 201.672H228.794V206.584H280.344V201.672Z" fill="#EAF3FE"/>
<path d="M341.274 201.672H281.741V206.584H341.274V201.672Z" fill="#EAF3FE"/>
<path d="M224.23 201.672H208.115V206.584H224.23V201.672Z" fill="#EAF3FE"/>
<path d="M228.817 190.709H203.297V195.621H228.817V190.709Z" fill="#EAF3FE"/>
<path d="M245.836 190.709H231.629V195.621H245.836V190.709Z" fill="#E0E0E0"/>
<path d="M206.093 169.189H190.159V174.102H206.093V169.189Z" fill="#EAF3FE"/>
<path d="M295.593 169.189H216.92V174.102H295.593V169.189Z" fill="#EAF3FE"/>
<path d="M383.903 201.672H346.708V206.584H383.903V201.672Z" fill="#EAF3FE"/>
<path d="M350.416 254.341H313.213V259.253H350.416V254.341Z" fill="#EAF3FE"/>
<path d="M359.518 158.395H282.021V163.307H359.518V158.395Z" fill="#EAF3FE"/>
<path d="M255.776 158.395H201.85V163.307H255.776V158.395Z" fill="#EAF3FE"/>
<path d="M200.584 135.737H164.277V140.65H200.584V135.737Z" fill="#EAF3FE"/>
<path d="M253.926 135.737H204.21V140.65H253.926V135.737Z" fill="#EAF3FE"/>
<path d="M205.362 125.322H189.379V130.235H205.362V125.322Z" fill="#E0E0E0"/>
<path d="M156.352 125.322H151.912V130.235H156.352V125.322Z" fill="#EAF3FE"/>
<path d="M156.352 136.073H151.912V140.986H156.352V136.073Z" fill="#EAF3FE"/>
<path d="M156.352 146.824H151.912V151.737H156.352V146.824Z" fill="#EAF3FE"/>
<path d="M156.352 157.574H151.912V162.487H156.352V157.574Z" fill="#EAF3FE"/>
<path d="M156.352 168.325H151.912V173.238H156.352V168.325Z" fill="#EAF3FE"/>
<path d="M156.352 179.076H151.912V183.989H156.352V179.076Z" fill="#EAF3FE"/>
<path d="M156.352 189.827H151.912V194.74H156.352V189.827Z" fill="#EAF3FE"/>
<path d="M156.352 200.578H151.912V205.491H156.352V200.578Z" fill="#EAF3FE"/>
<path d="M156.352 211.328H151.912V216.241H156.352V211.328Z" fill="#EAF3FE"/>
<path d="M202.797 288.312H195.66V293.225H202.797V288.312Z" fill="#E0E0E0"/>
<path d="M191.318 288.312H169.826V293.225H191.318V288.312Z" fill="#375DE7"/>
<path d="M156.352 287.774H151.912V292.687H156.352V287.774Z" fill="#EAF3FE"/>
<path d="M156.352 222.088H151.912V227H156.352V222.088Z" fill="#EAF3FE"/>
<path d="M156.352 232.839H151.912V237.751H156.352V232.839Z" fill="#EAF3FE"/>
<path d="M156.352 243.59H151.912V248.502H156.352V243.59Z" fill="#EAF3FE"/>
<path d="M156.352 254.341H151.912V259.253H156.352V254.341Z" fill="#EAF3FE"/>
<path d="M156.352 265.092H151.912V270.004H156.352V265.092Z" fill="#EAF3FE"/>
<path d="M191.458 276.407H169.688V281.32H191.458V276.407Z" fill="#EAF3FE"/>
<path d="M244.916 276.407H195.66V281.32H244.916V276.407Z" fill="#EAF3FE"/>
<path d="M156.352 276.406H151.912V281.319H156.352V276.406Z" fill="#EAF3FE"/>
<path d="M275.977 135.703H259.994V140.616H275.977V135.703Z" fill="#E0E0E0"/>
<g opacity="0.3">
<path d="M294.993 221.735H284.074V316.887H414.166L410.778 224.046L294.993 221.735Z" fill="black"/>
</g>
<path d="M422.628 207.678H292.454V307.901H422.628V207.678Z" fill="#E0E0E0"/>
<path d="M423.039 308.333H292.043V207.228H423.039V308.333ZM292.865 307.451H422.217V208.109H292.865V307.451Z" fill="#263238"/>
<path d="M338.216 218.384H317.169V223.146H338.216V218.384Z" fill="#EAF3FE"/>
<path d="M327.693 239.718H317.169V244.48H327.693V239.718Z" fill="#00C26B"/>
<path d="M339.911 250.451H325.087V255.214H339.911V250.451Z" fill="#EAF3FE"/>
<path d="M350.903 250.451H342.271V255.214H350.903V250.451Z" fill="#EAF3FE"/>
<path d="M339.911 260.92H325.087V265.682H339.911V260.92Z" fill="#EAF3FE"/>
<path d="M330.809 271.354H315.985V276.116H330.809V271.354Z" fill="#00C26B"/>
<path d="M330.802 281.786H323.879V286.549H330.802V281.786Z" fill="#EAF3FE"/>
<path d="M335.118 292.422H323.879V297.184H335.118V292.422Z" fill="#EAF3FE"/>
<path d="M352.415 281.786H333.538V286.549H352.415V281.786Z" fill="#EAF3FE"/>
<path d="M356.575 292.422H337.698V297.184H356.575V292.422Z" fill="#EAF3FE"/>
<path d="M402.067 292.422H379.737V297.184H402.067V292.422Z" fill="#EAF3FE"/>
<path d="M375.306 292.422H359.685V297.184H375.306V292.422Z" fill="#EAF3FE"/>
<path d="M379.752 281.786H355.005V286.549H379.752V281.786Z" fill="#EAF3FE"/>
<path d="M396.261 281.786H382.481V286.549H396.261V281.786Z" fill="white"/>
<path d="M357.719 260.92H342.271V265.682H357.719V260.92Z" fill="#EAF3FE"/>
<path d="M405.898 250.451H353.6V255.214H405.898V250.451Z" fill="#EAF3FE"/>
<path d="M352.382 228.481H317.169V233.244H352.382V228.481Z" fill="#EAF3FE"/>
<path d="M404.105 228.481H355.894V233.244H404.105V228.481Z" fill="#EAF3FE"/>
<path d="M357.005 218.384H341.507V223.146H357.005V218.384Z" fill="white"/>
<path d="M309.474 218.384H305.174V223.146H309.474V218.384Z" fill="#EAF3FE"/>
<path d="M309.474 228.809H305.174V233.571H309.474V228.809Z" fill="#EAF3FE"/>
<path d="M309.474 239.232H305.174V243.995H309.474V239.232Z" fill="#EAF3FE"/>
<path d="M309.474 249.657H305.174V254.42H309.474V249.657Z" fill="#EAF3FE"/>
<path d="M309.474 260.082H305.174V264.844H309.474V260.082Z" fill="#EAF3FE"/>
<path d="M309.474 270.515H305.174V275.277H309.474V270.515Z" fill="#EAF3FE"/>
<path d="M309.474 280.939H305.174V285.702H309.474V280.939Z" fill="#EAF3FE"/>
<path d="M309.474 291.364H305.174V296.127H309.474V291.364Z" fill="#EAF3FE"/>
<g opacity="0.3">
<path d="M222.297 344.837C223.949 336.017 218.597 309.639 218.597 309.639L178.623 315.089L176.971 344.643L222.289 344.837H222.297Z" fill="black"/>
</g>
<path d="M171.405 309.639C171.405 309.639 173.157 344.713 165.831 356.778L215.605 358.092C215.605 358.092 219.469 337.605 218.589 309.639H171.405Z" fill="#375DE7"/>
<path d="M218.467 316.43C218.467 316.553 208.107 316.659 195.323 316.659C182.538 316.659 172.179 316.553 172.179 316.43C172.179 316.306 182.538 316.2 195.323 316.2C208.107 316.2 218.467 316.306 218.467 316.43Z" fill="#263238"/>
<path d="M212.932 328.432C212.932 328.556 204.653 328.662 194.433 328.662C184.214 328.662 175.935 328.556 175.935 328.432C175.935 328.309 184.214 328.203 194.433 328.203C204.653 328.203 212.932 328.309 212.932 328.432Z" fill="#263238"/>
<path d="M213.336 334.985C213.336 335.109 205.057 335.214 194.838 335.214C184.618 335.214 176.339 335.109 176.339 334.985C176.339 334.862 184.618 334.756 194.838 334.756C205.057 334.756 213.336 334.862 213.336 334.985Z" fill="#263238"/>
<path d="M212.177 341.538C212.177 341.661 203.898 341.767 193.678 341.767C183.459 341.767 175.18 341.661 175.18 341.538C175.18 341.414 183.459 341.309 193.678 341.309C203.898 341.309 212.177 341.414 212.177 341.538Z" fill="#263238"/>
<g opacity="0.3">
<path d="M163.182 310.3C163.182 310.3 165.312 336.255 165.312 345.498H159.187L163.182 310.3Z" fill="black"/>
</g>
<path d="M148.508 310.3C148.508 310.3 150.259 345.374 142.934 357.439H159.319C159.319 357.439 164.055 338.266 163.175 310.3H148.508Z" fill="#E0E0E0"/>
<path d="M377.68 157.76L405.239 123.77L377.482 102.145L399.262 88.3955C399.262 88.3955 433.423 110.664 432.987 124.035C432.584 136.205 389.527 166.994 389.527 166.994L377.68 157.769V157.76Z" fill="#FFBF9D"/>
<path d="M356.057 234.964C351.864 242.364 345.566 248.467 337.591 252.109C327.775 256.589 316.906 256.704 307.007 252.418C297.108 248.14 289.355 239.974 285.178 229.443C276.554 207.695 286.033 182.472 306.308 173.22C316.133 168.74 326.994 168.625 336.893 172.911C346.792 177.189 354.545 185.355 358.721 195.886C363.95 209.08 362.52 223.561 356.057 234.964ZM290.128 191.855C284.093 202.5 282.761 216.003 287.645 228.315C291.542 238.148 298.777 245.759 308.01 249.754C317.243 253.75 327.38 253.644 336.547 249.463C345.714 245.283 352.81 237.522 356.534 227.618C360.259 217.714 360.16 206.839 356.263 197.006C352.366 187.172 345.131 179.561 335.898 175.566C326.665 171.571 316.528 171.677 307.36 175.857C299.92 179.252 294.041 184.95 290.128 191.855Z" fill="#00C26B"/>
<g opacity="0.3">
<path d="M356.057 234.964C351.864 242.364 345.566 248.467 337.591 252.109C327.775 256.589 316.906 256.704 307.007 252.418C297.108 248.14 289.355 239.974 285.178 229.443C276.554 207.695 286.033 182.472 306.308 173.22C316.133 168.74 326.994 168.625 336.893 172.911C346.792 177.189 354.545 185.355 358.721 195.886C363.95 209.08 362.52 223.561 356.057 234.964ZM290.128 191.855C284.093 202.5 282.761 216.003 287.645 228.315C291.542 238.148 298.777 245.759 308.01 249.754C317.243 253.75 327.38 253.644 336.547 249.463C345.714 245.283 352.81 237.522 356.534 227.618C360.259 217.714 360.16 206.839 356.263 197.006C352.366 187.172 345.131 179.561 335.898 175.566C326.665 171.571 316.528 171.677 307.36 175.857C299.92 179.252 294.041 184.95 290.128 191.855Z" fill="black"/>
</g>
<path d="M354.436 233.085C350.243 240.485 343.945 246.588 335.97 250.23C326.146 254.71 315.285 254.825 305.386 250.539C295.487 246.262 287.734 238.095 283.557 227.565C274.933 205.816 284.412 180.593 304.687 171.341C314.512 166.861 325.373 166.746 335.272 171.032C345.17 175.31 352.923 183.477 357.1 194.007C362.329 207.201 360.898 221.682 354.436 233.085ZM288.507 189.976C282.472 200.621 281.14 214.124 286.024 226.436C289.921 236.269 297.156 243.88 306.389 247.875C315.622 251.871 325.759 251.765 334.926 247.584C344.093 243.404 351.189 235.643 354.913 225.739C358.638 215.835 358.539 204.961 354.642 195.127C350.745 185.293 343.51 177.682 334.277 173.687C325.044 169.692 314.906 169.798 305.739 173.978C298.299 177.374 292.42 183.071 288.507 189.976Z" fill="#00C26B"/>
<path d="M412.548 154.302L414.118 156.922C415.516 159.259 413.806 163.007 410.731 164.533L358.581 198.787L353.714 191.15L404.548 152.962C407.829 150.289 410.748 151.295 412.548 154.302Z" fill="#00C26B"/>
<path d="M321.96 175.168C321.96 175.168 321.73 175.195 321.302 175.186C320.875 175.204 320.242 175.124 319.428 175.204C317.8 175.248 315.449 175.556 312.645 176.385C311.239 176.791 309.751 177.391 308.172 178.105C306.627 178.881 304.982 179.746 303.371 180.875C301.751 181.977 300.107 183.247 298.545 184.737C296.974 186.219 295.437 187.859 294.064 189.729C292.683 191.59 291.524 193.557 290.57 195.541C289.633 197.543 288.917 199.572 288.358 201.547C287.298 205.507 286.928 209.238 287.01 212.36C287.076 215.482 287.462 217.986 287.848 219.688C288.005 220.544 288.218 221.188 288.317 221.638C288.424 222.087 288.481 222.317 288.465 222.325C288.449 222.325 288.375 222.105 288.235 221.664C288.112 221.223 287.865 220.588 287.692 219.733C287.256 218.039 286.821 215.517 286.714 212.377C286.599 209.238 286.936 205.454 287.988 201.441C288.539 199.448 289.254 197.384 290.2 195.356C291.162 193.336 292.337 191.343 293.735 189.456C295.125 187.56 296.687 185.902 298.274 184.411C299.86 182.912 301.521 181.633 303.165 180.531C304.801 179.402 306.471 178.546 308.033 177.77C309.628 177.065 311.14 176.474 312.563 176.086C315.399 175.283 317.784 175.018 319.42 175.036C320.242 174.992 320.875 175.098 321.302 175.107C321.73 175.142 321.96 175.16 321.952 175.177L321.96 175.168Z" fill="white"/>
<path d="M353.13 221.003C353.031 220.968 353.771 219.036 354.289 215.756C354.347 215.341 354.413 214.909 354.47 214.468C354.528 214.018 354.544 213.542 354.585 213.057C354.692 212.087 354.667 211.037 354.684 209.944C354.626 207.748 354.388 205.34 353.862 202.862C353.303 200.392 352.513 198.126 351.65 196.132C351.181 195.154 350.762 194.21 350.269 193.39C350.03 192.975 349.817 192.561 349.578 192.181C349.332 191.811 349.101 191.458 348.879 191.114C347.046 188.424 345.591 187.049 345.656 186.969C345.673 186.943 346.035 187.295 346.668 187.939C346.988 188.257 347.375 188.662 347.769 189.174C348.172 189.677 348.666 190.232 349.118 190.92C349.348 191.264 349.595 191.617 349.849 191.979C350.104 192.349 350.318 192.763 350.573 193.187C351.091 194.007 351.527 194.959 352.012 195.947C352.908 197.958 353.714 200.26 354.281 202.756C354.815 205.26 355.046 207.712 355.078 209.935C355.054 211.046 355.054 212.104 354.939 213.092C354.889 213.586 354.865 214.062 354.791 214.512C354.717 214.962 354.643 215.394 354.577 215.808C354.462 216.637 354.248 217.369 354.1 218.013C353.96 218.666 353.779 219.204 353.623 219.645C353.327 220.527 353.146 221.012 353.122 220.994L353.13 221.003Z" fill="white"/>
<path d="M328.431 190.638C328.513 190.735 323.128 196.133 316.419 202.703C309.702 209.273 304.193 214.53 304.119 214.433C304.037 214.336 309.414 208.938 316.131 202.359C322.848 195.789 328.348 190.532 328.431 190.629V190.638Z" fill="white"/>
<path d="M338.701 197.597C338.701 197.597 338.578 197.747 338.323 197.994C338.027 198.267 337.649 198.62 337.172 199.052C336.128 199.996 334.681 201.301 332.913 202.906C329.312 206.151 324.346 210.649 318.912 215.685C313.477 220.721 308.61 225.334 305.091 228.685C303.365 230.334 301.951 231.675 300.923 232.654C300.454 233.095 300.076 233.447 299.78 233.721C299.517 233.959 299.369 234.082 299.361 234.074C299.353 234.065 299.476 233.915 299.722 233.659C300.002 233.368 300.364 232.989 300.816 232.53C301.77 231.56 303.159 230.167 304.894 228.456C308.363 225.043 313.198 220.386 318.641 215.35C324.075 210.314 329.074 205.852 332.724 202.668C334.549 201.072 336.038 199.802 337.074 198.928C337.567 198.523 337.961 198.188 338.274 197.932C338.553 197.711 338.701 197.597 338.71 197.605L338.701 197.597Z" fill="white"/>
<g opacity="0.3">
<path d="M288.738 230.836L343.584 180.081C343.584 180.081 349.011 184.526 351.305 188.512L295.175 240.335C295.175 240.335 290.941 236.313 288.729 230.836H288.738Z" fill="white"/>
</g>
<g opacity="0.3">
<path d="M301.185 245.071L354.634 195.127C354.634 195.127 354.897 194.66 355.628 198.249L303.774 246.624C303.774 246.624 302.516 246.315 301.185 245.071Z" fill="white"/>
</g>
<path d="M377.681 157.76C377.681 157.76 361.591 176.765 361.237 177.471C360.875 178.185 356.543 189.157 357.611 191.379C358.68 193.602 366.738 201.407 366.738 201.407C366.738 201.407 369.615 200.075 366.894 194.854L364.172 189.642L365.636 184.377C365.636 184.377 367.806 191.053 369.064 192.517C370.322 193.981 375.305 196.486 376.554 195.198C377.804 193.919 377.993 192.34 377.993 192.34C377.993 192.34 381.405 195.26 383.814 190.629C383.814 190.629 386.848 190.127 388.147 187.851C389.454 185.576 389.281 181.166 389.281 181.166C389.281 181.166 388.27 179.058 386.33 180.452C384.389 181.845 383.46 184.526 383.46 184.526L382.055 182.516C382.055 182.516 382.646 177.859 384.2 174.666C385.179 172.656 391.493 168.264 392.241 164.78C392.874 161.825 387.357 159.868 384.537 160.035C384.11 160.062 383.691 160.15 383.296 160.309L377.681 157.76Z" fill="#FFBF9D"/>
<path d="M376.282 182.03C376.282 182.03 376.258 182.216 376.282 182.542C376.299 182.868 376.365 183.344 376.504 183.926C376.768 185.073 377.409 186.625 378.601 187.939C379.785 189.253 381.207 190.003 382.268 190.329C382.802 190.497 383.238 190.576 383.55 190.612C383.855 190.647 384.027 190.647 384.027 190.629C384.027 190.585 383.353 190.523 382.317 190.153C381.289 189.791 379.916 189.042 378.765 187.763C377.614 186.484 376.965 184.985 376.661 183.874C376.348 182.753 376.324 182.021 376.282 182.021V182.03Z" fill="#FF9A6C"/>
<path d="M370.873 181.448C370.873 181.448 370.856 181.642 370.873 181.995C370.873 182.171 370.898 182.392 370.93 182.639C370.963 182.886 370.996 183.177 371.07 183.486C371.185 184.112 371.391 184.835 371.687 185.611C371.991 186.387 372.386 187.207 372.887 188.019C373.397 188.821 373.972 189.518 374.523 190.109C375.091 190.691 375.641 191.158 376.143 191.502C376.381 191.688 376.62 191.82 376.825 191.952C377.023 192.084 377.204 192.181 377.36 192.252C377.656 192.402 377.828 192.472 377.837 192.464C377.861 192.42 377.195 192.093 376.242 191.361C375.765 191 375.23 190.523 374.68 189.941C374.137 189.35 373.586 188.663 373.085 187.878C372.591 187.084 372.032 186.175 371.72 185.417C371.424 184.659 371.366 184.05 371.226 183.441C370.947 182.224 370.906 181.439 370.856 181.448H370.873Z" fill="#FF9A6C"/>
<path d="M364.715 180.072C364.715 180.072 364.575 180.328 364.526 180.787C364.468 181.245 364.501 181.907 364.723 182.577C365.027 183.485 365.356 183.821 365.628 184.094C365.94 184.411 366.187 184.544 366.195 184.517C366.244 184.464 365.365 183.785 364.945 182.489C364.501 181.201 364.789 180.081 364.715 180.072Z" fill="#FF9A6C"/>
<path d="M420.177 121.741C420.135 121.812 419.297 121.177 417.768 120.586C416.255 119.986 413.994 119.519 411.56 119.96C409.118 120.366 407.211 121.821 406.044 122.994C404.86 124.184 404.268 125.084 404.21 125.031C404.185 125.013 404.309 124.775 404.572 124.37C404.835 123.964 405.246 123.399 405.83 122.756C406.964 121.494 408.921 119.925 411.486 119.501C414.019 119.051 416.354 119.589 417.875 120.277C418.639 120.621 419.231 120.974 419.609 121.256C419.996 121.53 420.185 121.715 420.168 121.741H420.177Z" fill="#FF9A6C"/>
<path d="M336.802 43.1609C336.802 37.3842 336.786 31.5635 335.865 25.8662C334.944 20.1689 333.078 14.5509 329.74 10.009C329.23 9.32107 325.341 4.87611 324.593 5.22889C324.059 5.47583 326.953 9.87669 326.83 10.4852C325.646 16.3236 326.698 22.4884 328.836 28.0093C330.973 33.5302 333.612 38.2485 336.802 43.1521" fill="#263238"/>
<path d="M330.972 21.9946C327.231 8.06 316.559 -1.21796 303.676 3.18289L302.509 3.65914C290.752 8.50096 284.429 22.2062 287.981 35.1619C291.286 47.2179 295.084 60.491 297.395 66.7351C302.188 79.6643 315.022 76.6922 315.022 76.6922C315.047 76.6834 323.038 96.4564 323.038 96.4564L348.517 82.4424L330.972 21.9858V21.9946Z" fill="#FFBF9D"/>
<path d="M315.054 76.8158C315.054 76.8158 322.856 74.1524 329.031 65.3242C329.031 65.3242 329.392 77.4685 316.895 81.2696L315.062 76.8158H315.054Z" fill="#FF9A6C"/>
<path d="M296.581 46.8833C296.902 47.8799 297.946 48.409 298.916 48.0651C299.887 47.7299 300.421 46.654 300.1 45.6574C299.78 44.6608 298.736 44.1316 297.765 44.4668C296.795 44.8019 296.261 45.8779 296.581 46.8745V46.8833Z" fill="#263238"/>
<path d="M292.503 39.5008C292.808 39.6508 293.745 38.0721 295.603 37.3137C297.453 36.5287 299.188 36.9873 299.303 36.661C299.36 36.5111 298.99 36.1671 298.226 35.9466C297.478 35.7262 296.318 35.6821 295.159 36.1671C294 36.6522 293.194 37.5077 292.799 38.2132C292.397 38.9188 292.355 39.4391 292.503 39.5008Z" fill="#263238"/>
<path d="M312.489 40.9038C312.809 41.9004 313.853 42.4295 314.824 42.0856C315.794 41.7504 316.328 40.6745 316.008 39.6779C315.687 38.6813 314.643 38.1522 313.673 38.4873C312.702 38.8224 312.168 39.8984 312.489 40.895V40.9038Z" fill="#263238"/>
<path d="M311.009 32.8075C311.313 32.9574 312.251 31.3788 314.109 30.6203C315.959 29.8354 317.693 30.294 317.809 29.9677C317.866 29.8177 317.496 29.4738 316.732 29.2533C315.983 29.0328 314.824 28.9887 313.665 29.4738C312.506 29.9588 311.7 30.8143 311.305 31.5199C310.902 32.2254 310.861 32.7458 311.009 32.8075Z" fill="#263238"/>
<path d="M309.825 50.8874C309.792 50.7728 308.559 51.0285 306.594 51.5489C306.101 51.69 305.616 51.7782 305.41 51.4607C305.163 51.1344 305.172 50.5082 305.188 49.8203C305.188 48.4004 305.196 46.9187 305.204 45.3577C305.18 39.0254 304.966 33.9013 304.728 33.9102C304.489 33.9102 304.317 39.043 304.341 45.3753C304.358 46.9275 304.374 48.418 304.391 49.8379C304.415 50.4905 304.341 51.2755 304.859 51.9369C305.122 52.2632 305.574 52.3955 305.903 52.3602C306.24 52.3338 306.512 52.228 306.75 52.1486C308.674 51.4783 309.85 51.0109 309.817 50.8962L309.825 50.8874Z" fill="#263238"/>
<path d="M315.795 50.0141C315.483 50.1199 316.256 52.2894 315.08 54.5384C313.904 56.7873 311.668 57.4311 311.759 57.7398C311.783 57.8897 312.392 57.9603 313.304 57.6163C314.209 57.2812 315.401 56.4345 316.124 55.0587C316.84 53.6829 316.848 52.2365 316.593 51.3193C316.346 50.3845 315.927 49.9347 315.795 50.0052V50.0141Z" fill="#263238"/>
<path d="M308.215 24.6588C308.594 25.1262 310.361 24.1032 312.639 23.4858C314.908 22.8244 316.914 22.7803 317.029 22.1718C317.078 21.8895 316.585 21.5015 315.689 21.2722C314.793 21.0341 313.494 20.9988 312.129 21.3868C310.764 21.7749 309.646 22.4893 308.972 23.1595C308.298 23.8386 308.043 24.4295 308.215 24.65V24.6588Z" fill="#263238"/>
<path d="M290.891 32.5522C291.384 32.8697 292.494 31.8731 294.024 31.2117C295.536 30.4973 296.975 30.3474 297.107 29.7476C297.156 29.4654 296.786 29.095 296.063 28.901C295.347 28.707 294.278 28.7422 293.234 29.2097C292.19 29.6859 291.417 30.4708 291.047 31.1587C290.669 31.8467 290.661 32.3935 290.883 32.5522H290.891Z" fill="#263238"/>
<path d="M333.43 32.0224C333.602 31.8461 340.805 25.9547 343.715 34.9505C346.625 43.9374 337.615 45.225 337.516 44.9693C337.417 44.7135 333.43 32.0313 333.43 32.0313V32.0224Z" fill="#FFBF9D"/>
<path d="M338.971 40.6035C338.971 40.6035 339.152 40.6564 339.44 40.6917C339.719 40.7181 340.155 40.6476 340.542 40.3124C341.314 39.6333 341.569 37.8518 341.084 36.2114C340.838 35.3824 340.426 34.668 339.95 34.1212C339.481 33.5568 338.938 33.2481 338.461 33.3275C337.985 33.3804 337.763 33.7861 337.738 34.0771C337.705 34.3682 337.82 34.5269 337.779 34.5622C337.763 34.5975 337.549 34.4828 337.5 34.086C337.475 33.8919 337.5 33.645 337.648 33.3981C337.796 33.1511 338.059 32.9483 338.379 32.8689C339.037 32.6749 339.826 33.0982 340.352 33.6979C340.912 34.2888 341.397 35.0914 341.668 36.0174C342.202 37.8518 341.882 39.8626 340.796 40.6917C340.262 41.0797 339.711 41.0709 339.382 40.9474C339.053 40.824 338.938 40.6387 338.963 40.6123L338.971 40.6035Z" fill="#FF9A6C"/>
<path d="M288.721 18.2644C287.109 17.9557 289.699 11.7469 292.536 8.90707C296.811 4.62086 304.054 0.308202 309.152 0.0436211C315.293 -0.282695 320.9 1.02257 325.439 5.47634C329.977 9.93011 333.044 15.9273 334.852 22.2331C335.403 24.1557 335.847 26.2106 335.403 28.1685C334.861 30.585 333.003 32.6576 333.965 35.3739C334.318 36.3617 334.367 37.4729 333.965 38.4431C332.978 40.7537 330.577 39.7836 329.196 38.4431C326.236 35.5856 324.707 31.4405 323.268 27.4542C322.249 24.6232 321.213 21.7216 321.098 18.6877C321.032 17.0385 321.246 15.3805 321.098 13.7313C320.95 12.082 320.366 10.3711 319.083 9.44505C318.878 9.29512 318.557 9.12755 318.171 8.95117C315.088 7.57535 311.544 8.11333 308.913 10.327C304.745 13.8371 297.51 19.4462 294.854 18.4937C291.039 17.1179 289.798 15.7597 289.798 15.7597L288.721 18.2556V18.2644Z" fill="#263238"/>
<path d="M276.043 101.907C276.043 101.907 274.843 98.2733 278.913 93.3874C282.974 88.5015 315.236 78.9325 315.236 78.9325C315.236 78.9325 326.96 93.1757 337.106 83.4568C344.489 76.3748 344.752 69.3105 344.752 69.3105H373.93L377.581 101.475L365.939 101.545L276.035 101.916L276.043 101.907Z" fill="#00C26B"/>
<path d="M368.635 69.3019C368.635 69.3019 376.248 67.6527 383.204 71.0393C394.895 76.719 415.194 94.7986 415.194 94.7986L390.504 116.547L373.403 101.493L368.643 69.3019H368.635Z" fill="#00C26B"/>
<path d="M379.24 106.767C379.24 106.767 379.125 106.723 378.928 106.59C378.73 106.458 378.434 106.273 378.073 105.999C377.349 105.461 376.321 104.632 375.17 103.468C374.019 102.304 372.712 100.84 371.512 98.988C370.311 97.1624 369.193 94.8959 368.79 92.303C367.935 87.1789 368.692 82.3018 370.229 79.3032C370.994 77.7951 371.931 76.7986 372.63 76.2165C372.983 75.9254 373.296 75.7667 373.493 75.6344C373.699 75.5109 373.805 75.4492 373.814 75.4668C373.83 75.5021 373.419 75.7843 372.737 76.3576C372.079 76.9661 371.207 77.9715 370.5 79.4532C369.07 82.4077 368.379 87.1966 369.21 92.2148C369.596 94.7371 370.673 96.9243 371.832 98.7411C372.992 100.576 374.266 102.048 375.376 103.23C376.494 104.412 377.481 105.267 378.171 105.849C378.862 106.432 379.256 106.731 379.24 106.767Z" fill="#263238"/>
<path d="M373.395 101.492C373.395 101.616 353.302 101.81 328.513 101.916C303.717 102.022 283.623 102.004 283.623 101.881C283.623 101.757 303.717 101.563 328.513 101.457C353.302 101.351 373.395 101.369 373.395 101.492Z" fill="#263238"/>
<path d="M265.529 97.0918C265.586 97.2241 265.635 97.3564 265.685 97.4975C265.899 98.1236 266.005 98.7763 266.055 99.4377C266.071 99.7376 266.03 100.073 266.096 100.373C266.137 100.575 266.26 100.734 266.334 100.919C266.795 102.11 266.688 103.521 266.655 104.773C266.614 106.193 266.63 107.693 267.321 108.91C268.011 110.118 269.615 110.841 270.708 110.03C270.544 110.912 271.185 111.829 271.999 112.058C272.813 112.288 273.701 111.926 274.301 111.291C274.901 110.656 275.247 109.8 275.46 108.919C275.403 109.977 276.373 110.885 277.368 110.903C278.354 110.921 279.267 110.215 279.785 109.315C280.311 108.416 280.5 107.34 280.615 106.29C280.73 105.241 280.952 103.265 281.215 102.242C281.215 102.242 282.457 102.454 283.024 102.516C283.789 102.595 283.189 102.533 283.189 102.533C283.608 102.092 283.92 101.334 284.373 100.32C285.162 98.5734 285.77 97.4622 286.37 95.8835C286.823 94.6929 287.119 93.5111 286.436 92.735C284.792 90.8741 281.569 94.6576 281.569 94.6576C281.117 93.3435 277.368 93.1231 276.644 94.8781C276.348 93.908 276.463 93.3524 275.732 92.6997C275 92.0471 273.989 91.712 273.076 91.9854C272.163 92.25 271.415 93.2024 271.465 94.2167C270.692 92.8849 269.097 92.1706 267.674 92.5145C266.819 92.7262 266.063 93.3083 265.561 94.0756C265.307 94.4636 265.134 94.8958 265.019 95.3455C264.978 95.5043 264.912 95.6983 264.928 95.8747C264.937 95.9629 264.969 96.0335 265.002 96.104C265.167 96.4391 265.389 96.739 265.537 97.0918H265.529Z" fill="#FFBF9D"/>
<path d="M261.573 94.5256C260.759 94.4903 259.871 94.6755 259.329 95.3282C258.687 96.1043 258.556 97.6388 258.63 98.6707C259.756 98.9 260.348 98.9441 261.475 99.1734C261.713 99.2175 261.91 99.1558 262.108 99.3057C262.626 99.7026 262.543 101.043 262.757 101.687C263.119 102.807 264.459 103.363 265.503 102.948C266.539 102.534 267.213 101.352 267.263 100.161C267.312 98.9706 266.827 97.8152 266.112 96.898C264.993 95.4781 263.308 94.5873 261.573 94.5256Z" fill="#FFBF9D"/>
<path d="M271.463 93.8555C271.677 93.8643 271.677 97.4979 271.463 101.96C271.249 106.423 270.904 110.03 270.698 110.021C270.485 110.013 270.485 106.379 270.698 101.916C270.912 97.4538 271.257 93.8467 271.463 93.8555Z" fill="#FF9A6C"/>
<path d="M276.66 94.6309C276.866 94.6221 277.137 97.9205 276.808 101.986C276.488 106.052 275.69 109.253 275.493 109.209C275.279 109.165 275.731 105.928 276.044 101.916C276.373 97.9117 276.438 94.6397 276.66 94.6309Z" fill="#FF9A6C"/>
<path d="M281.741 95.3721C281.955 95.3721 282.046 98.1149 281.651 101.449C281.256 104.773 280.779 107.419 280.582 107.402C280.36 107.375 280.5 104.659 280.894 101.352C281.289 98.0532 281.536 95.3721 281.75 95.3721H281.741Z" fill="#FF9A6C"/>
<path d="M263.201 95.09C263.201 94.993 263.744 94.8607 264.525 95.2487C265.298 95.6103 266.186 96.5804 266.605 97.8592C267.016 99.1469 267.156 100.258 267.123 101.193C267.032 102.198 266.35 102.489 266.334 102.357C266.276 102.269 266.638 101.916 266.58 101.175C266.49 100.452 266.26 99.2615 265.89 98.1503C265.511 97.0126 264.854 96.1924 264.262 95.7602C263.67 95.3193 263.193 95.2223 263.209 95.0988L263.201 95.09Z" fill="#FF9A6C"/>
<path d="M146.978 48.0391H87.9712C83.4896 48.0391 79.8564 51.9363 79.8564 56.7438V120.04C79.8564 124.848 83.4896 128.745 87.9712 128.745H146.978C151.46 128.745 155.093 124.848 155.093 120.04V56.7438C155.093 51.9363 151.46 48.0391 146.978 48.0391Z" fill="#375DE7"/>
<g opacity="0.3">
<path d="M146.978 48.0391H87.9712C83.4896 48.0391 79.8564 51.9363 79.8564 56.7438V120.04C79.8564 124.848 83.4896 128.745 87.9712 128.745H146.978C151.46 128.745 155.093 124.848 155.093 120.04V56.7438C155.093 51.9363 151.46 48.0391 146.978 48.0391Z" fill="black"/>
</g>
<path d="M135.945 48.0391H76.938C72.4564 48.0391 68.8232 51.9363 68.8232 56.7438V120.04C68.8232 124.848 72.4564 128.745 76.938 128.745H135.945C140.427 128.745 144.06 124.848 144.06 120.04V56.7438C144.06 51.9363 140.427 48.0391 135.945 48.0391Z" fill="#375DE7"/>
<path d="M95.8473 70.4056C97.4176 69.3825 99.0948 68.6152 100.821 68.0861L101.849 62.8033L110.169 62.6445L111.37 67.8832C113.113 68.3418 114.815 69.0562 116.418 70.0175L120.619 67.063L126.605 73.263L123.998 77.8756C124.952 79.5601 125.667 81.3592 126.161 83.2113L131.085 84.3137L131.233 93.2389L126.35 94.5265C125.922 96.3962 125.256 98.2218 124.36 99.9416L127.114 104.448L121.334 110.869L117.035 108.073C115.464 109.096 113.787 109.863 112.06 110.392L111.033 115.675L102.712 115.834L101.512 110.595C99.769 110.137 98.0671 109.422 96.4639 108.461L92.2626 111.416L86.2772 105.216L88.8835 100.603C87.9298 98.9185 87.2145 97.1194 86.7212 95.2673L81.7964 94.1649L81.6484 85.2397L86.5321 83.9521C86.9596 82.0824 87.6256 80.2568 88.5218 78.537L85.7675 74.0303L91.5473 67.6098L95.8473 70.4056ZM100.279 82.294C96.8503 86.0952 96.9572 92.1629 100.501 95.8318C104.044 99.5006 109.701 99.3948 113.121 95.5936C116.541 91.7925 116.443 85.7248 112.899 82.0559C109.355 78.3871 103.699 78.4929 100.279 82.294Z" fill="white"/>
<g opacity="0.3">
<path d="M127.156 48.0391L68.8232 98.0183V107.755L138.379 48.0391H127.156Z" fill="white"/>
</g>
<g opacity="0.3">
<path d="M68.8973 119.097L144.06 56.541V74.1003L76.7489 128.745C72.3832 128.745 68.8479 124.926 68.889 120.243V119.097H68.8973Z" fill="white"/>
</g>
<path d="M442.093 172.859H412.01C407.529 172.859 403.896 176.757 403.896 181.564V213.834C403.896 218.642 407.529 222.539 412.01 222.539H442.093C446.575 222.539 450.208 218.642 450.208 213.834V181.564C450.208 176.757 446.575 172.859 442.093 172.859Z" fill="#263238"/>
<path d="M435.303 172.859H405.22C400.739 172.859 397.105 176.757 397.105 181.564V213.834C397.105 218.642 400.739 222.539 405.22 222.539H435.303C439.785 222.539 443.418 218.642 443.418 213.834V181.564C443.418 176.757 439.785 172.859 435.303 172.859Z" fill="#EAF3FE"/>
<path d="M406.091 197.403L410.498 192.676L418.991 200.781L433.181 185.506L437.276 190.233L418.366 209.891L406.091 197.403Z" fill="white"/>
</g>
<defs>
<clipPath id="clip0_5436_16253">
<rect width="570" height="385" fill="white"/>
</clipPath>
</defs>
</svg>
